<svg width="24" height="24" viewBox="0 0 24 24" fill="none" xmlns="http://www.w3.org/2000/svg">
<path d="M2 6.5C2 5.83696 2.26339 5.20107 2.73223 4.73223C3.20107 4.26339 3.83696 4 4.5 4H19.5C20.163 4 20.7989 4.26339 21.2678 4.73223C21.7366 5.20107 22 5.83696 22 6.5V16.5C22 17.163 21.7366 17.7989 21.2678 18.2678C20.7989 18.7366 20.163 19 19.5 19H4.5C3.83696 19 3.20107 18.7366 2.73223 18.2678C2.26339 17.7989 2 17.163 2 16.5V6.5ZM5.125 7.75C4.95924 7.75 4.80027 7.81585 4.68306 7.93306C4.56585 8.05027 4.5 8.20924 4.5 8.375V9.625C4.5 9.79076 4.56585 9.94973 4.68306 10.0669C4.80027 10.1842 4.95924 10.25 5.125 10.25H7.625C7.79076 10.25 7.94973 10.1842 8.06694 10.0669C8.18415 9.94973 8.25 9.79076 8.25 9.625V8.375C8.25 8.20924 8.18415 8.05027 8.06694 7.93306C7.94973 7.81585 7.79076 7.75 7.625 7.75H5.125ZM5.125 14C4.95924 14 4.80027 14.0658 4.68306 14.1831C4.56585 14.3003 4.5 14.4592 4.5 14.625C4.5 14.7908 4.56585 14.9497 4.68306 15.0669C4.80027 15.1842 4.95924 15.25 5.125 15.25H6.375C6.54076 15.25 6.69973 15.1842 6.81694 15.0669C6.93415 14.9497 7 14.7908 7 14.625C7 14.4592 6.93415 14.3003 6.81694 14.1831C6.69973 14.0658 6.54076 14 6.375 14H5.125ZM8.875 14C8.70924 14 8.55027 14.0658 8.43306 14.1831C8.31585 14.3003 8.25 14.4592 8.25 14.625C8.25 14.7908 8.31585 14.9497 8.43306 15.0669C8.55027 15.1842 8.70924 15.25 8.875 15.25H10.125C10.2908 15.25 10.4497 15.1842 10.5669 15.0669C10.6842 14.9497 10.75 14.7908 10.75 14.625C10.75 14.4592 10.6842 14.3003 10.5669 14.1831C10.4497 14.0658 10.2908 14 10.125 14H8.875ZM12.625 14C12.4592 14 12.3003 14.0658 12.1831 14.1831C12.0658 14.3003 12 14.4592 12 14.625C12 14.7908 12.0658 14.9497 12.1831 15.0669C12.3003 15.1842 12.4592 15.25 12.625 15.25H13.875C14.0408 15.25 14.1997 15.1842 14.3169 15.0669C14.4342 14.9497 14.5 14.7908 14.5 14.625C14.5 14.4592 14.4342 14.3003 14.3169 14.1831C14.1997 14.0658 14.0408 14 13.875 14H12.625ZM16.375 14C16.2092 14 16.0503 14.0658 15.9331 14.1831C15.8158 14.3003 15.75 14.4592 15.75 14.625C15.75 14.7908 15.8158 14.9497 15.9331 15.0669C16.0503 15.1842 16.2092 15.25 16.375 15.25H17.625C17.7908 15.25 17.9497 15.1842 18.0669 15.0669C18.1842 14.9497 18.25 14.7908 18.25 14.625C18.25 14.4592 18.1842 14.3003 18.0669 14.1831C17.9497 14.0658 17.7908 14 17.625 14H16.375Z" fill="#171616"/>
</svg>
