<svg width="24" height="24" viewBox="0 0 24 24" fill="none" xmlns="http://www.w3.org/2000/svg">
<path fill-rule="evenodd" clip-rule="evenodd" d="M3 2C2.44772 2 2 2.44772 2 3V21C2 21.5523 2.44772 22 3 22H21C21.5523 22 22 21.5523 22 21V3C22 2.44772 21.5523 2 21 2H3ZM10.5356 14.9689C10.4137 14.9181 10.3031 14.8437 10.2102 14.75L8.29019 12.83C8.10188 12.6417 7.99609 12.3863 7.99609 12.12C7.99609 11.8537 8.10188 11.5983 8.29019 11.41C8.47849 11.2217 8.73388 11.1159 9.00019 11.1159C9.26649 11.1159 9.52188 11.2217 9.71019 11.41L10.9202 12.63L14.2902 9.24999C14.4785 9.06169 14.7339 8.9559 15.0002 8.9559C15.2665 8.9559 15.5219 9.06169 15.7102 9.24999C15.8985 9.4383 16.0043 9.69369 16.0043 9.95999C16.0043 10.2263 15.8985 10.4817 15.7102 10.67L11.6302 14.75C11.5372 14.8437 11.4266 14.9181 11.3048 14.9689C11.1829 15.0197 11.0522 15.0458 10.9202 15.0458C10.7882 15.0458 10.6575 15.0197 10.5356 14.9689Z" fill="#171616"/>
</svg>
